<svg xmlns="http://www.w3.org/2000/svg" xmlns:xlink="http://www.w3.org/1999/xlink" width="794" zoomAndPan="magnify" viewBox="0 0 595.5 842.249979" height="1123" preserveAspectRatio="xMidYMid meet" version="1.0"><defs><clipPath id="a79d20dd68"><path d="M 2 99 L 594.984375 99 L 594.984375 719 L 2 719 Z M 2 99 " clip-rule="nonzero"/></clipPath><clipPath id="df5e68d4f4"><path d="M 190.144531 345.9375 L 504.234375 345.9375 L 504.234375 558.082031 L 190.144531 558.082031 Z M 190.144531 345.9375 " clip-rule="nonzero"/></clipPath><clipPath id="2df13e968a"><path d="M 0.144531 1 L 314.175781 1 L 314.175781 213 L 0.144531 213 Z M 0.144531 1 " clip-rule="nonzero"/></clipPath><clipPath id="43dd5ffb8c"><rect x="0" width="315" y="0" height="214"/></clipPath><clipPath id="5fcc3142fa"><path d="M 58 58 L 573 58 L 573 551 L 58 551 Z M 58 58 " clip-rule="nonzero"/></clipPath><clipPath id="13917420f5"><path d="M 696.578125 469.585938 L 79.609375 631.742188 L -74.160156 46.671875 L 542.808594 -115.484375 Z M 696.578125 469.585938 " clip-rule="nonzero"/></clipPath><clipPath id="3d97a3fbd2"><path d="M 696.578125 469.585938 L 79.609375 631.742188 L -74.160156 46.671875 L 542.808594 -115.484375 Z M 696.578125 469.585938 " clip-rule="nonzero"/></clipPath><clipPath id="2b05e5a7df"><rect x="0" width="593" y="0" height="620"/></clipPath></defs><g clip-path="url(#a79d20dd68)"><g transform="matrix(1, 0, 0, 1, 2, 99)"><g clip-path="url(#2b05e5a7df)"><g clip-path="url(#df5e68d4f4)"><g transform="matrix(1, 0, 0, 1, 190, 345)"><g clip-path="url(#43dd5ffb8c)"><g clip-path="url(#2df13e968a)"><path fill="#faf4eb" d="M 243.757812 46.082031 C 243.332031 44.710938 242.980469 43.339844 242.734375 41.753906 C 242.488281 40.171875 242.277344 38.308594 241.75 35.914062 C 241.714844 35.703125 241.644531 35.492188 241.609375 35.28125 C 241.433594 35.28125 241.257812 35.210938 241.011719 35.140625 C 240.449219 34.929688 239.570312 34.578125 239.003906 34.4375 C 238.441406 34.332031 238.230469 34.507812 238.125 35.105469 C 237.984375 35.703125 237.949219 36.757812 238.089844 38.625 C 238.230469 40.488281 238.582031 43.164062 239.109375 45.414062 C 239.640625 47.667969 240.34375 49.496094 240.871094 51.503906 C 241.398438 53.507812 241.785156 55.65625 242.417969 57.449219 C 243.050781 59.242188 243.898438 60.6875 244.882812 61.988281 C 245.832031 63.289062 246.886719 64.488281 247.660156 65.191406 C 248.4375 65.929688 248.929688 66.175781 249.175781 66.316406 C 249.421875 66.457031 249.421875 66.457031 249.28125 66.421875 C 249.140625 66.386719 248.824219 66.316406 248.332031 66.210938 C 247.871094 66.070312 247.273438 65.894531 246.675781 65.507812 C 246.042969 65.121094 245.410156 64.523438 244.671875 63.746094 C 243.898438 62.9375 243.015625 61.917969 242.558594 61.390625 C 242.101562 60.863281 242.101562 60.863281 242.3125 61.25 C 242.488281 61.636719 242.875 62.445312 243.472656 63.429688 C 244.074219 64.417969 244.882812 65.578125 245.761719 66.808594 C 246.605469 68.074219 247.519531 69.414062 247.941406 70.996094 C 248.367188 72.578125 248.332031 74.375 248.191406 75.921875 C 248.046875 77.46875 247.765625 78.738281 247.449219 79.6875 C 247.132812 80.636719 246.710938 81.269531 246.535156 81.621094 C 246.359375 81.9375 246.359375 81.9375 246.394531 81.585938 C 246.429688 81.234375 246.535156 80.53125 246.605469 79.652344 C 246.640625 78.808594 246.640625 77.824219 246.464844 76.800781 C 246.289062 75.78125 245.902344 74.691406 245.691406 74.164062 C 245.515625 73.636719 245.515625 73.636719 245.410156 74.445312 C 245.304688 75.253906 245.09375 76.871094 244.8125 78.246094 C 244.496094 79.617188 244.074219 80.707031 244.039062 82.078125 C 244.003906 83.453125 244.355469 85.035156 244.847656 86.265625 C 245.339844 87.5 245.9375 88.378906 246.851562 88.976562 C 247.765625 89.574219 248.964844 89.890625 249.5625 90.03125 C 250.160156 90.171875 250.160156 90.171875 249 90.207031 C 247.835938 90.207031 245.515625 90.242188 243.96875 89.890625 C 242.417969 89.539062 241.609375 88.835938 240.941406 87.816406 C 240.238281 86.832031 239.640625 85.527344 239.074219 84.507812 C 238.511719 83.488281 237.949219 82.679688 237.070312 81.585938 C 236.191406 80.496094 234.996094 79.089844 234.394531 78.421875 C 233.796875 77.714844 233.796875 77.714844 234.078125 78.28125 C 234.359375 78.84375 234.925781 79.933594 235.242188 80.847656 C 235.59375 81.761719 235.699219 82.46875 235.699219 83.488281 C 235.664062 84.472656 235.523438 85.773438 235.453125 86.371094 C 235.382812 87.007812 235.382812 87.007812 235.207031 86.40625 C 235.066406 85.808594 234.714844 84.613281 234.113281 83.453125 C 233.480469 82.292969 232.566406 81.164062 231.792969 80.285156 C 231.019531 79.40625 230.316406 78.773438 229.503906 77.859375 C 228.695312 76.941406 227.746094 75.746094 227.113281 74.234375 C 226.480469 72.753906 226.234375 70.960938 226.058594 70.046875 C 225.917969 69.167969 225.917969 69.167969 225.988281 70.257812 C 226.058594 71.347656 226.234375 73.53125 225.917969 75.007812 C 225.597656 76.449219 224.859375 77.1875 224.472656 77.539062 C 224.085938 77.894531 224.085938 77.894531 224.226562 77.222656 C 224.367188 76.554688 224.648438 75.253906 224.648438 73.777344 C 224.648438 72.296875 224.367188 70.679688 224.050781 69.273438 C 223.699219 67.863281 223.3125 66.667969 222.714844 65.542969 C 222.117188 64.417969 221.308594 63.394531 220.460938 61.285156 C 219.617188 59.171875 218.703125 55.972656 218.808594 51.292969 C 218.949219 46.578125 220.109375 40.347656 222.152344 36.335938 C 224.191406 32.324219 227.148438 30.53125 229.714844 29.652344 C 232.285156 28.808594 234.535156 28.84375 235.628906 28.878906 C 236.753906 28.914062 236.753906 28.914062 236.859375 28.84375 C 236.964844 28.773438 237.210938 28.597656 237.316406 28.527344 C 237.421875 28.457031 237.421875 28.457031 237.457031 28.136719 C 237.492188 27.820312 237.527344 27.1875 237.84375 26.625 C 238.160156 26.0625 238.757812 25.570312 239.5 25.359375 C 239.570312 25.324219 239.640625 25.324219 239.710938 25.324219 C 239.640625 24.023438 239.675781 22.859375 239.710938 21.699219 C 239.746094 19.765625 239.78125 17.96875 240.589844 15.789062 C 241.398438 13.570312 242.980469 10.933594 244.917969 8.46875 C 246.851562 6.007812 249.105469 3.683594 251.777344 2.417969 C 254.453125 1.148438 257.585938 0.9375 259.871094 1.078125 C 262.160156 1.21875 263.566406 1.714844 264.269531 1.960938 C 264.972656 2.207031 264.972656 2.207031 266.453125 2.488281 C 267.929688 2.769531 270.886719 3.367188 273.066406 4.105469 C 275.25 4.84375 276.65625 5.722656 277.710938 6.746094 C 278.765625 7.800781 279.433594 8.996094 280.105469 9.699219 C 280.773438 10.441406 281.371094 10.6875 282.742188 10.898438 C 284.117188 11.109375 286.261719 11.285156 287.738281 11.355469 C 289.21875 11.425781 290.0625 11.425781 290.765625 11.636719 C 291.46875 11.847656 292.03125 12.304688 292.136719 13.113281 C 292.277344 13.957031 291.960938 15.191406 291.785156 15.789062 C 291.644531 16.386719 291.644531 16.386719 292.171875 16.597656 C 292.734375 16.773438 293.828125 17.160156 294.460938 17.476562 C 295.09375 17.828125 295.199219 18.144531 295.269531 18.566406 C 295.375 18.988281 295.445312 19.519531 295.515625 19.765625 C 295.550781 20.046875 295.550781 20.046875 295.902344 20.046875 C 296.253906 20.046875 296.957031 20.011719 297.449219 20.117188 C 297.980469 20.257812 298.296875 20.539062 298.507812 20.925781 C 298.683594 21.347656 298.71875 21.875 298.578125 22.332031 C 298.4375 22.789062 298.085938 23.175781 298.015625 23.5625 C 297.945312 23.988281 298.121094 24.410156 298.648438 24.832031 C 299.175781 25.253906 300.054688 25.710938 300.722656 26.414062 C 301.390625 27.117188 301.777344 28.101562 301.777344 28.984375 C 301.8125 29.828125 301.425781 30.566406 300.511719 31.515625 C 299.632812 32.464844 298.191406 33.628906 296.78125 35.246094 C 295.375 36.828125 293.96875 38.871094 293.125 40.734375 C 292.277344 42.601562 292.03125 44.324219 291.890625 46.824219 C 291.75 49.320312 291.820312 52.558594 291.433594 55.761719 C 291.011719 58.960938 290.203125 62.09375 289.78125 64.558594 C 289.359375 66.984375 289.359375 68.746094 289.570312 69.800781 C 289.746094 70.855469 290.132812 71.277344 291.363281 72.824219 C 292.628906 74.375 294.742188 77.046875 296.816406 79.792969 C 298.894531 82.539062 300.933594 85.351562 302.90625 88.0625 C 304.875 90.804688 306.707031 93.480469 308.324219 96.226562 C 309.941406 98.96875 311.316406 101.820312 312.335938 104.386719 C 313.355469 106.957031 314.058594 109.421875 314.023438 112.445312 C 313.988281 115.472656 313.25 119.132812 311.632812 122.15625 C 310.011719 125.183594 307.550781 127.578125 305.367188 129.054688 C 303.1875 130.53125 301.25 131.09375 299.457031 133.628906 C 297.664062 136.199219 295.972656 140.738281 293.546875 145.910156 C 291.117188 151.082031 287.949219 156.886719 285.453125 161.425781 C 282.988281 165.964844 281.230469 169.238281 280.351562 170.890625 C 279.46875 172.511719 279.46875 172.511719 278.730469 174.515625 C 277.992188 176.484375 276.515625 180.496094 275.460938 183.804688 C 274.402344 187.148438 273.734375 189.785156 273.101562 192.25 C 272.46875 194.679688 271.871094 196.894531 271.625 198.230469 C 271.378906 199.570312 271.484375 200.027344 271.519531 200.238281 C 271.589844 200.484375 271.589844 200.484375 272.328125 200.238281 C 273.066406 200.027344 274.578125 199.570312 275.953125 199.359375 C 277.324219 199.148438 278.589844 199.183594 280.492188 199.605469 C 282.390625 200.027344 284.855469 200.835938 287.386719 201.433594 C 289.921875 201.996094 292.523438 202.347656 294.25 202.59375 C 295.972656 202.839844 296.886719 202.980469 297.875 203.121094 C 298.894531 203.296875 299.984375 203.507812 300.617188 203.828125 C 301.25 204.179688 301.390625 204.636719 301.355469 204.917969 C 301.320312 205.199219 301.144531 205.234375 300.96875 205.269531 C 300.792969 205.304688 300.582031 205.269531 300.441406 205.304688 C 300.300781 205.339844 300.230469 205.445312 300.125 205.585938 C 300.019531 205.726562 299.878906 205.867188 299.246094 205.902344 C 298.613281 205.902344 297.519531 205.761719 296.324219 205.550781 C 295.128906 205.375 293.792969 205.09375 292.417969 204.953125 C 291.011719 204.8125 289.535156 204.777344 288.546875 204.847656 C 287.527344 204.917969 287 205.058594 286.753906 205.304688 C 286.507812 205.515625 286.578125 205.832031 286.613281 205.972656 C 286.648438 206.113281 286.648438 206.113281 287.703125 206.148438 C 288.761719 206.183594 290.90625 206.253906 292.769531 206.605469 C 294.601562 206.957031 296.113281 207.589844 297.554688 208.011719 C 299 208.472656 300.40625 208.789062 301.566406 209.070312 C 302.730469 209.351562 303.714844 209.632812 304.136719 210.019531 C 304.59375 210.40625 304.558594 210.863281 303.960938 211.179688 C 303.363281 211.496094 302.167969 211.601562 301.601562 211.742188 C 301.039062 211.882812 301.074219 211.988281 300.933594 212.199219 C 300.792969 212.375 300.511719 212.625 298.648438 212.550781 C 296.78125 212.480469 293.371094 212.164062 291.609375 212.023438 C 289.851562 211.917969 289.816406 212.023438 289.535156 212.234375 C 289.253906 212.480469 288.761719 212.871094 287.492188 212.835938 C 286.226562 212.835938 284.152344 212.410156 281.863281 212.058594 C 279.574219 211.707031 277.042969 211.390625 273.804688 211.25 C 270.566406 211.109375 266.59375 211.109375 264.410156 210.863281 C 262.230469 210.617188 261.84375 210.125 261.382812 209 C 260.925781 207.835938 260.328125 206.042969 259.90625 204.25 C 259.484375 202.453125 259.273438 200.695312 259.238281 198.125 C 259.203125 195.59375 259.34375 192.285156 259.519531 190.140625 C 259.660156 187.992188 259.835938 187.007812 259.90625 186.480469 C 260.011719 185.988281 260.011719 185.988281 257.726562 187.21875 C 255.472656 188.449219 250.96875 190.914062 246.535156 192.8125 C 242.101562 194.679688 237.703125 195.945312 233.621094 196.578125 C 229.539062 197.210938 225.707031 197.140625 222.539062 197.351562 C 219.40625 197.527344 216.945312 197.914062 212.476562 198.722656 C 208.042969 199.5 201.601562 200.660156 192.734375 201.117188 C 183.832031 201.609375 172.503906 201.398438 161.59375 200.34375 C 150.6875 199.324219 140.269531 197.457031 133.058594 196.402344 C 125.84375 195.347656 121.867188 195.171875 115.078125 195.769531 C 108.285156 196.367188 98.75 197.738281 89.566406 199.21875 C 80.382812 200.660156 71.585938 202.171875 64.445312 203.652344 C 57.300781 205.128906 51.8125 206.570312 47.097656 207.519531 C 42.417969 208.472656 38.511719 208.964844 33.867188 209.351562 C 29.222656 209.773438 23.804688 210.125 18.347656 210.125 C 12.894531 210.160156 7.441406 209.914062 4.308594 209.457031 C 1.179688 209 0.367188 208.332031 0.296875 207.34375 C 0.261719 206.359375 0.96875 205.058594 2.09375 204.25 C 3.21875 203.4375 4.765625 203.15625 5.507812 202.980469 C 6.28125 202.839844 6.28125 202.839844 7.300781 202.03125 C 8.355469 201.222656 10.398438 199.640625 12.824219 198.300781 C 15.21875 196.964844 17.996094 195.910156 20.636719 194.464844 C 23.308594 193.023438 25.914062 191.230469 28.167969 189.257812 C 30.453125 187.289062 32.425781 185.140625 34.078125 183.664062 C 35.730469 182.222656 37.070312 181.449219 38.265625 181.058594 C 39.460938 180.636719 40.550781 180.566406 41.925781 181.023438 C 43.261719 181.484375 44.808594 182.46875 46.253906 183.488281 C 47.660156 184.472656 48.960938 185.457031 51.8125 185.671875 C 54.695312 185.847656 59.128906 185.210938 65.253906 183.277344 C 71.375 181.34375 79.117188 178.105469 86.4375 175.5 C 93.71875 172.863281 100.546875 170.820312 106.738281 169.835938 C 112.929688 168.816406 118.527344 168.816406 124.71875 169.238281 C 130.910156 169.660156 137.773438 170.503906 142.699219 170.820312 C 147.589844 171.136719 150.546875 170.925781 155.894531 169.976562 C 161.242188 168.992188 168.949219 167.230469 177.042969 165.402344 C 185.132812 163.574219 193.578125 161.636719 197.800781 160.722656 C 202.023438 159.773438 202.023438 159.773438 203.46875 158.117188 C 204.910156 156.5 207.832031 153.226562 211.3125 150.519531 C 214.832031 147.808594 218.914062 145.664062 223.101562 144.394531 C 227.253906 143.128906 231.476562 142.777344 234.679688 142.742188 C 237.84375 142.707031 239.992188 142.988281 242.453125 142.320312 C 244.882812 141.652344 247.589844 140.066406 249.351562 137.851562 C 251.109375 135.632812 251.953125 132.820312 252.625 129.371094 C 253.292969 125.921875 253.75 121.875 253.574219 116.527344 C 253.398438 111.214844 252.550781 104.5625 252.304688 99.25 C 252.058594 93.9375 252.410156 89.855469 253.890625 84.824219 C 255.332031 79.792969 257.902344 73.777344 259.976562 69.589844 C 262.089844 65.402344 263.742188 63.042969 264.550781 61.847656 C 265.359375 60.652344 265.359375 60.652344 265.324219 59.59375 C 265.253906 58.539062 265.113281 56.429688 265.007812 55.375 C 264.902344 54.351562 264.832031 54.386719 263.917969 54.949219 C 263.003906 55.515625 261.3125 56.605469 259.0625 56.851562 C 256.773438 57.0625 253.996094 56.394531 251.566406 55.195312 C 249.140625 53.964844 247.097656 52.171875 245.796875 50.550781 C 244.742188 48.933594 244.179688 47.457031 243.757812 46.082031 Z M 243.757812 46.082031 " fill-opacity="1" fill-rule="evenodd"/></g></g></g></g><g clip-path="url(#5fcc3142fa)"><g clip-path="url(#13917420f5)"><g clip-path="url(#3d97a3fbd2)"><path fill="#faf4eb" d="M 225.183594 550.164062 C 77.449219 502.003906 15.613281 326.941406 90.078125 193.027344 C 145.066406 88.1875 276.363281 34.25 389.265625 69.566406 C 608.390625 134.242188 642.578125 442.179688 430.125 539.679688 C 585.261719 452.96875 607.46875 224 459.605469 118.84375 C 239.804688 -35.5 -29.511719 216.988281 109.128906 446.867188 C 135.6875 492.421875 177.042969 528.707031 225.183594 550.164062 Z M 225.183594 550.164062 " fill-opacity="1" fill-rule="nonzero"/></g></g></g></g></g></g></svg>