<?xml version="1.0" standalone="no"?>
<!DOCTYPE svg PUBLIC "-//W3C//DTD SVG 20010904//EN"
 "http://www.w3.org/TR/2001/REC-SVG-20010904/DTD/svg10.dtd">
<svg version="1.0" xmlns="http://www.w3.org/2000/svg"
 width="450.000000pt" height="636.000000pt" viewBox="0 0 450.000000 636.000000"
 preserveAspectRatio="xMidYMid meet">
<metadata>
Created by potrace 1.10, written by Peter Selinger 2001-2011
</metadata>
<g transform="translate(0.000000,636.000000) scale(0.100000,-0.100000)"
fill="#000000" stroke="none">
<path d="M2157 4073 c-12 -11 -8 -23 8 -23 8 0 15 7 15 15 0 16 -12 20 -23 8z"/>
<path d="M2262 4069 c2 -6 8 -10 13 -10 5 0 11 4 13 10 2 6 -4 11 -13 11 -9 0
-15 -5 -13 -11z"/>
<path d="M2370 4060 c0 -5 7 -10 15 -10 8 0 15 5 15 10 0 6 -7 10 -15 10 -8 0
-15 -4 -15 -10z"/>
<path d="M2050 4045 c0 -8 7 -15 15 -15 8 0 15 7 15 15 0 8 -7 15 -15 15 -8 0
-15 -7 -15 -15z"/>
<path d="M2480 4040 c0 -5 5 -10 10 -10 6 0 10 5 10 10 0 6 -4 10 -10 10 -5 0
-10 -4 -10 -10z"/>
<path d="M1940 4016 c0 -10 9 -16 21 -16 24 0 21 23 -4 28 -10 2 -17 -3 -17
-12z"/>
<path d="M1844 3979 c-8 -14 11 -33 25 -25 6 4 11 14 11 22 0 16 -26 19 -36 3z"/>
<path d="M2680 3960 c0 -5 5 -10 10 -10 6 0 10 5 10 10 0 6 -4 10 -10 10 -5 0
-10 -4 -10 -10z"/>
<path d="M1753 3924 c-8 -20 8 -36 26 -25 15 10 8 41 -9 41 -6 0 -13 -7 -17
-16z"/>
<path d="M2770 3899 c0 -5 5 -7 10 -4 6 3 10 8 10 11 0 2 -4 4 -10 4 -5 0 -10
-5 -10 -11z"/>
<path d="M1665 3860 c-4 -7 -3 -16 3 -22 14 -14 45 -2 40 15 -6 16 -34 21 -43
7z"/>
<path d="M1584 3789 c-10 -17 23 -46 37 -32 7 7 9 19 6 27 -7 18 -33 21 -43 5z"/>
<path d="M1980 3719 c0 -4 9 -9 20 -12 19 -5 20 -14 20 -161 0 -153 -1 -157
-22 -166 -17 -6 -7 -9 42 -9 49 0 59 3 43 9 -23 9 -23 12 -23 177 l0 168 -40
0 c-22 0 -40 -2 -40 -6z"/>
<path d="M1523 3709 c-16 -16 -5 -39 19 -39 14 0 19 6 16 22 -4 25 -19 33 -35
17z"/>
<path d="M2144 3705 c-8 -21 2 -45 19 -45 20 0 40 27 33 45 -7 19 -45 20 -52
0z"/>
<path d="M1473 3623 c-16 -6 -17 -39 -2 -49 6 -3 18 1 27 10 14 14 14 18 2 30
-8 7 -21 12 -27 9z"/>
<path d="M2421 3604 c-17 -12 -26 -13 -34 -5 -19 19 -85 13 -107 -9 -35 -35
-15 -120 27 -120 14 0 13 -4 -5 -20 -43 -41 -21 -70 54 -70 56 0 80 -16 70
-48 -14 -41 -97 -55 -137 -23 -21 17 -22 22 -11 41 18 30 10 34 -16 10 -24
-22 -26 -29 -14 -46 34 -52 171 -41 202 15 29 55 -5 91 -88 91 -44 0 -53 3
-50 16 2 9 21 22 43 30 51 17 67 39 63 88 -3 42 16 61 25 25 3 -12 12 -19 19
-17 18 6 23 39 6 49 -18 12 -20 11 -47 -7z m-47 -36 c14 -39 -3 -82 -33 -86
-28 -4 -41 12 -41 51 0 67 54 92 74 35z"/>
<path d="M1792 3594 c-29 -20 -26 -59 3 -59 23 0 33 34 14 46 -9 5 -4 10 16
15 39 10 59 -6 63 -48 3 -34 1 -36 -44 -52 -77 -26 -100 -58 -74 -106 19 -35
88 -33 112 4 5 8 8 7 8 -1 0 -18 38 -35 60 -28 26 8 26 25 0 18 -19 -5 -20 0
-20 94 0 84 -3 103 -18 116 -24 22 -90 22 -120 1z m98 -139 c0 -37 -4 -47 -26
-62 -31 -20 -57 -9 -62 26 -5 32 26 61 86 80 1 1 2 -19 2 -44z"/>
<path d="M2120 3599 c0 -4 7 -9 15 -13 12 -4 15 -25 15 -101 0 -90 -1 -96 -22
-105 -17 -6 -7 -9 42 -9 50 0 60 2 42 10 -23 9 -23 12 -20 118 l3 108 -37 -1
c-21 0 -38 -4 -38 -7z"/>
<path d="M2508 3593 c20 -14 22 -23 22 -110 0 -88 -1 -94 -22 -103 -17 -6 -7
-9 42 -9 49 0 59 3 43 9 -21 8 -23 16 -23 79 0 80 12 114 46 130 47 21 54 8
54 -104 0 -90 -2 -104 -17 -108 -10 -2 8 -5 40 -8 31 -2 57 -1 57 4 0 4 -6 7
-14 7 -10 0 -15 24 -18 101 -3 85 -7 103 -23 115 -32 23 -81 18 -104 -12 l-21
-27 0 24 c0 22 -5 24 -42 25 -41 1 -42 1 -20 -13z"/>
<path d="M1421 3516 c-16 -19 -6 -36 20 -36 15 0 20 6 17 22 -4 27 -21 33 -37
14z"/>
<path d="M1393 3423 c-7 -3 -13 -13 -13 -23 0 -19 17 -30 38 -23 6 3 12 13 12
23 0 19 -17 30 -37 23z"/>
<path d="M1364 3305 c-4 -9 -2 -21 4 -27 15 -15 44 -1 40 19 -4 23 -36 29 -44
8z"/>
<path d="M1353 3194 c-3 -8 -1 -20 5 -26 16 -16 42 -2 42 22 0 24 -38 28 -47
4z"/>
<path d="M2445 3118 c-32 -18 -35 -28 -35 -135 0 -86 -3 -104 -17 -112 -14 -8
-5 -10 37 -10 43 0 50 2 32 9 -22 9 -23 13 -20 121 2 72 7 114 14 116 6 2 14
-6 17 -18 5 -19 8 -20 21 -10 28 24 -15 57 -49 39z"/>
<path d="M1911 3106 c-9 -10 -8 -16 4 -26 19 -16 41 1 32 24 -8 20 -21 20 -36
2z"/>
<path d="M2113 3109 c14 -9 17 -26 17 -119 0 -93 -3 -110 -17 -119 -14 -8 -8
-10 27 -10 25 0 39 3 33 6 -9 3 -13 27 -13 68 0 54 3 66 21 79 38 26 49 11 49
-69 0 -49 -4 -75 -12 -78 -7 -3 7 -6 32 -6 35 0 41 2 28 10 -14 8 -18 24 -18
77 0 40 -5 73 -12 80 -17 17 -54 15 -72 -4 -15 -14 -16 -10 -16 40 l0 56 -32
0 c-27 -1 -30 -2 -15 -11z"/>
<path d="M1373 3103 c-16 -6 -17 -39 -2 -49 6 -3 18 1 27 10 14 14 14 18 2 30
-8 7 -21 12 -27 9z"/>
<path d="M2010 2987 c0 -67 4 -107 12 -115 25 -25 78 -8 78 26 0 9 -7 6 -18
-8 -32 -40 -42 -17 -42 96 0 86 -3 104 -15 104 -12 0 -15 -18 -15 -103z"/>
<path d="M2896 3061 c-36 -39 -53 -146 -34 -203 17 -48 14 -70 -8 -61 -27 10
-47 70 -41 121 6 43 5 45 -8 28 -27 -35 -15 -111 24 -158 8 -9 18 -15 22 -12
5 2 13 -5 19 -16 6 -11 15 -20 20 -20 6 0 5 9 -2 20 -11 17 -11 22 0 29 11 6
9 20 -7 69 -23 66 -27 107 -11 97 6 -3 10 -15 10 -26 0 -30 38 -62 66 -55 30
8 30 3 -1 -58 -21 -42 -25 -63 -25 -143 0 -109 -14 -133 -76 -133 -39 0 -67
-12 -101 -42 -34 -31 -163 -57 -283 -58 -90 0 -118 -4 -199 -31 -80 -27 -99
-30 -124 -21 -26 10 -34 8 -66 -16 -20 -15 -53 -36 -73 -47 -21 -11 -38 -23
-38 -28 0 -5 41 -7 90 -5 54 2 92 -1 94 -7 3 -5 11 -2 19 7 24 30 183 52 307
42 209 -16 363 -7 434 27 22 11 41 19 43 19 1 0 0 -13 -3 -29 -11 -54 5 -67
93 -68 43 -1 73 0 66 3 -7 3 -10 11 -7 18 8 21 -87 29 -103 9 -13 -17 -33 -10
-33 12 0 8 6 12 14 9 10 -4 16 5 21 28 12 53 94 210 126 240 44 40 37 76 -34
176 -26 35 -31 51 -28 90 1 28 10 58 23 76 16 23 18 33 9 52 -6 13 -15 24 -21
24 -6 0 -8 5 -5 10 4 6 -5 10 -19 10 -14 0 -26 4 -26 9 0 11 -55 31 -85 31
-12 0 -30 -9 -39 -19z m100 -16 c3 -8 16 -17 27 -21 12 -3 30 -13 39 -21 15
-14 16 -19 4 -42 -8 -14 -17 -52 -20 -84 -7 -54 -5 -62 23 -105 17 -26 36 -53
43 -61 23 -27 17 -80 -11 -104 -27 -24 -105 -171 -117 -219 -7 -32 -12 -34
-29 -12 -10 15 -15 15 -61 -1 -27 -9 -69 -20 -94 -23 -67 -8 -255 -7 -337 3
-48 5 -98 4 -150 -5 -116 -18 -125 -20 -142 -29 -9 -5 -34 -9 -56 -9 -22 -1
-52 -3 -67 -5 -38 -6 -34 2 18 40 38 28 47 31 68 22 20 -9 44 -5 133 24 70 22
122 33 148 31 88 -7 133 -5 205 10 81 17 130 34 130 45 0 13 59 41 87 41 44 0
82 22 93 54 5 16 10 66 10 111 0 62 5 92 21 124 26 54 22 74 -15 81 -22 4 -35
16 -51 46 -21 39 -21 41 -4 82 17 40 21 42 59 42 26 0 43 -5 46 -15z m77 -742
c-7 -2 -19 -2 -25 0 -7 3 -2 5 12 5 14 0 19 -2 13 -5z"/>
<path d="M1620 3032 c0 -2 7 -10 14 -18 8 -8 25 -46 37 -84 13 -39 25 -70 29
-70 3 0 16 30 29 67 l24 66 25 -68 c24 -64 26 -66 37 -44 7 13 21 50 31 82 10
31 21 57 26 57 4 0 8 3 8 8 0 4 -14 7 -30 8 -17 1 -30 -3 -30 -7 0 -5 7 -9 16
-9 10 0 14 -6 11 -14 -3 -8 -11 -33 -17 -56 -6 -23 -13 -40 -15 -38 -3 2 -15
33 -29 68 l-24 65 -16 -40 c-9 -21 -19 -49 -22 -62 -10 -38 -20 -35 -33 8 -7
23 -15 47 -18 55 -3 8 1 14 11 14 9 0 16 4 16 8 0 4 -18 8 -40 7 -22 0 -40 -1
-40 -3z"/>
<path d="M1890 3029 c0 -4 6 -9 13 -12 18 -7 14 -136 -4 -148 -9 -6 1 -9 29
-9 41 0 42 1 27 17 -14 14 -17 30 -13 88 l5 72 -29 -1 c-15 -1 -28 -4 -28 -7z"/>
<path d="M1980 3030 c0 -5 5 -10 10 -10 6 0 10 5 10 10 0 6 -4 10 -10 10 -5 0
-10 -4 -10 -10z"/>
<path d="M2055 3030 c-3 -5 3 -10 14 -10 12 0 21 5 21 10 0 6 -6 10 -14 10 -8
0 -18 -4 -21 -10z"/>
<path d="M2380 3030 c0 -5 5 -10 10 -10 6 0 10 5 10 10 0 6 -4 10 -10 10 -5 0
-10 -4 -10 -10z"/>
<path d="M2450 3030 c0 -5 7 -10 16 -10 8 0 12 5 9 10 -3 6 -10 10 -16 10 -5
0 -9 -4 -9 -10z"/>
<path d="M2490 3028 c0 -5 5 -8 10 -8 6 0 10 -24 10 -54 0 -78 13 -106 49
-106 15 0 35 8 42 18 11 14 11 15 -1 5 -23 -21 -49 -15 -56 12 -3 14 -4 52 -2
84 l4 58 -28 -1 c-15 -1 -28 -4 -28 -8z"/>
<path d="M2590 3028 c0 -3 4 -8 9 -10 5 -1 11 -38 12 -80 l3 -78 29 0 c27 0
27 1 12 17 -14 13 -16 31 -13 88 l3 72 -27 -1 c-16 -1 -28 -4 -28 -8z"/>
<path d="M2690 3028 c0 -5 5 -8 10 -8 6 0 10 -31 10 -74 0 -63 -3 -75 -17 -79
-10 -3 5 -5 32 -6 38 0 46 2 33 10 -27 15 -25 112 2 139 11 11 24 20 30 20 13
0 32 -38 25 -50 -3 -6 1 -10 9 -10 24 0 29 19 12 45 -19 29 -51 32 -78 8 -14
-13 -18 -13 -18 -2 0 8 -10 14 -25 14 -14 0 -25 -3 -25 -7z"/>
<path d="M1383 2989 c-16 -16 -5 -39 17 -39 25 0 35 18 20 35 -15 18 -22 19
-37 4z"/>
<path d="M1417 2893 c-11 -10 -8 -41 4 -49 6 -3 18 1 27 9 13 13 13 19 2 31
-14 17 -23 20 -33 9z"/>
<path d="M1461 2791 c-19 -12 -6 -43 16 -39 10 2 18 12 18 22 0 22 -14 29 -34
17z"/>
<path d="M1512 2678 c2 -13 10 -23 18 -23 8 0 16 10 18 23 3 17 -2 22 -18 22
-16 0 -21 -5 -18 -22z"/>
<path d="M1581 2611 c-19 -12 -6 -43 16 -39 10 2 18 12 18 22 0 22 -14 29 -34
17z"/>
<path d="M1653 2524 c-6 -16 15 -37 29 -28 4 3 8 14 8 25 0 23 -28 26 -37 3z"/>
<path d="M1735 2460 c-4 -7 -3 -16 3 -22 14 -14 45 -2 40 15 -6 16 -34 21 -43
7z"/>
<path d="M1832 2393 c4 -21 33 -25 33 -3 0 8 -8 16 -18 18 -14 3 -18 -1 -15
-15z"/>
<path d="M1930 2350 c0 -11 7 -20 15 -20 8 0 15 9 15 20 0 11 -7 20 -15 20 -8
0 -15 -9 -15 -20z"/>
<path d="M2465 2310 c3 -5 8 -10 11 -10 2 0 4 5 4 10 0 6 -5 10 -11 10 -5 0
-7 -4 -4 -10z"/>
<path d="M2355 2301 c-6 -11 9 -23 19 -14 9 9 7 23 -3 23 -6 0 -12 -4 -16 -9z"/>
<path d="M2250 2290 c0 -5 5 -10 10 -10 6 0 10 5 10 10 0 6 -4 10 -10 10 -5 0
-10 -4 -10 -10z"/>
</g>
</svg>
